<?xml version="1.0" encoding="UTF-8"?><svg id="Layer_2" xmlns="http://www.w3.org/2000/svg" xmlns:xlink="http://www.w3.org/1999/xlink" viewBox="0 0 81.7 67.95"><defs><style>.cls-1{fill:url(#New_Gradient_Swatch_copy);}.cls-2{fill:url(#New_Gradient_Swatch_copy-2);}</style><linearGradient id="New_Gradient_Swatch_copy" x1="0" y1="33.98" x2="81.7" y2="33.98" gradientTransform="matrix(1, 0, 0, 1, 0, 0)" gradientUnits="userSpaceOnUse"><stop offset="0" stop-color="#8f489b"/><stop offset="1" stop-color="#f3b1d0"/></linearGradient><linearGradient id="New_Gradient_Swatch_copy-2" x1="55.16" y1="21.3" x2=".15" y2="21.3" xlink:href="#New_Gradient_Swatch_copy"/></defs><g id="Layer_1-2"><path class="cls-1" d="M61.02,14c.9,0,2.62,.2,3.99,1.52,1.68,1.62,2.69,4.24,2.69,7.02,0,2.24-.64,4.34-1.81,5.95l-18.29,21.74-.19,.23-.18,.24-.7,.91c-1.63,2.12-4.02,2.34-4.97,2.34-.9,0-2.62-.2-3.99-1.52l-.13-.13-.13-.12-5.48-5.01-14.14-14.65-.95-1.17-.2-.24-.21-.24c-3.09-3.46-3.09-9.75,0-13.2,1.11-1.25,2.43-1.91,3.81-1.91s2.7,.66,3.81,1.9l5.46,6.11,11.24,12.57,10.29-13.36,5.12-6.65c1.63-2.12,4.02-2.34,4.97-2.34m0-14c-6.04,0-12.1,2.65-16.07,7.8l-5.12,6.64-5.46-6.11C30.46,3.96,25.29,1.76,20.13,1.76S9.8,3.96,5.88,8.34c-7.84,8.76-7.84,23.1,0,31.87l1.32,1.62,14.84,15.39,5.8,5.31c3.79,3.65,8.74,5.43,13.71,5.43,6.04,0,12.1-2.65,16.07-7.8l.7-.91,18.53-22.02c3.26-4.23,4.86-9.47,4.86-14.68,0-6.35-2.37-12.66-6.98-17.1-3.79-3.65-8.74-5.43-13.7-5.43h0Z"/><path class="cls-2" d="M6.03,39.98C-1.8,31.22-1.8,16.88,6.03,8.11,9.95,3.73,15.12,1.54,20.28,1.54s10.33,2.19,14.25,6.57l5.46,6.11,.03,.03,3.86-5.03c1.59-2.06,4.58-1.43,5.38,1.14l5.44,19.77h0c1.52,4.57-.8,8.66-6.67,8.24h0l-18.75-.55c-2.39-.51-3.4-3.72-1.81-5.78l4.43-5.75h0l-4.81-5.38c-3.03-3.39-5.23-5.89-8.92-7.39-4.3-1.75-8.41,.25-11.44,3.64-6.06,6.77-5.43,17.12,.63,23.89"/></g></svg>